<?xml version="1.0" encoding="UTF-8" standalone="no"?>
<!DOCTYPE svg PUBLIC "-//W3C//DTD SVG 1.1//EN" "http://www.w3.org/Graphics/SVG/1.1/DTD/svg11.dtd">
<svg width="100%" height="100%" viewBox="0 0 725 744" version="1.1" xmlns="http://www.w3.org/2000/svg" xmlns:xlink="http://www.w3.org/1999/xlink" xml:space="preserve" xmlns:serif="http://www.serif.com/" style="fill-rule:evenodd;clip-rule:evenodd;stroke-linejoin:round;stroke-miterlimit:2;">
    <rect id="Artboard1" x="0" y="0" width="724.95" height="743.315" style="fill:none;"/>
    <clipPath id="_clip1">
        <rect x="0" y="0" width="724.95" height="743.315"/>
    </clipPath>
    <g clip-path="url(#_clip1)">
        <g>
            <path id="Shape-7" serif:id="Shape 7" d="M246.395,-354.788C331.824,-340.304 403.763,-291.475 477.752,-246.413C550.131,-202.332 651.802,-174.858 675.399,-93.512C700.013,-8.658 588.207,65.792 593.892,153.956C600.224,252.15 737.509,326.5 708.55,420.548C681.93,507.002 550.268,498.976 473.093,546.265C393.279,595.171 338.999,689.93 246.395,703.73C151.779,717.832 54.66,675.972 -23.031,620.206C-97.52,566.74 -131.648,477.836 -178.266,398.918C-225.328,319.246 -324.804,242.643 -298.449,153.956C-269.52,56.602 -102.253,70.056 -53.982,-19.314C-3.266,-113.21 -106.422,-253.87 -35.222,-333.39C28.635,-404.708 151.97,-370.798 246.395,-354.788Z" style="fill:rgb(239,209,67);"/>
            <path id="Shape-3-copy" serif:id="Shape 3 copy" d="M110.297,214.194L143.527,214.194C157.291,214.194 168.45,225.352 168.45,239.117L168.45,272.346C168.45,286.111 157.291,297.269 143.527,297.269L110.297,297.269C96.533,297.269 85.375,286.111 85.375,272.346L85.375,239.117C85.375,225.352 96.533,214.194 110.297,214.194Z" style="fill:white;fill-rule:nonzero;"/>
            <path id="Shape-5" serif:id="Shape 5" d="M118.852,243.736C118.56,243.302 118.234,242.955 117.925,242.661C117.766,242.505 117.641,242.391 117.522,242.281C117.377,242.146 117.244,242.023 117.071,241.85C116.713,241.494 116.675,241.209 116.675,241.06C116.675,240.989 116.685,240.915 116.705,240.846C116.821,240.611 116.856,240.346 116.805,240.088C116.753,239.832 116.618,239.599 116.421,239.428L116.423,239.428C116.228,239.255 115.979,239.152 115.719,239.134C115.457,239.116 115.198,239.185 114.981,239.33L114.975,239.332L114.876,239.401C114.521,239.655 114.179,239.927 113.851,240.215C113.253,240.737 112.481,241.513 111.933,242.438C111.472,243.15 111.073,244.033 110.789,244.887C110.504,245.739 110.297,246.662 110.297,247.435C110.297,249.409 111.01,251.098 112.13,252.159C111.437,252.864 111.034,253.782 110.784,254.698C110.297,256.486 110.297,258.69 110.297,260.399L110.297,260.484C110.297,265.367 111.211,268.268 112.246,269.991C112.637,270.67 113.15,271.271 113.76,271.764C114.001,271.952 114.265,272.112 114.543,272.238C114.704,272.297 114.874,272.334 115.044,272.347C115.243,272.347 115.545,272.238 115.545,272.238C115.824,272.112 116.086,271.952 116.328,271.764C116.938,271.271 117.452,270.67 117.842,269.991C118.878,268.267 119.791,265.367 119.791,260.484L119.791,260.396C119.791,258.69 119.791,256.484 119.304,254.7C119.055,253.782 118.652,252.864 117.959,252.161C119.079,251.096 119.791,249.409 119.791,247.435C119.791,245.782 119.457,244.645 118.852,243.736ZM139.374,250.993L136.341,250.993C136.151,249.285 135.551,247.648 134.591,246.221C133.632,244.793 132.342,243.62 130.831,242.798C129.32,241.975 127.634,241.53 125.914,241.5C124.194,241.47 122.493,241.855 120.954,242.623C121.59,243.667 121.979,244.842 122.093,246.059C123.155,245.426 124.395,245.062 125.724,245.062C127.408,245.062 129.037,245.657 130.322,246.743C131.608,247.829 132.468,249.335 132.748,250.993L128.691,250.993C126.398,250.993 124.538,252.853 124.538,255.145L124.538,259.203C123.692,259.061 122.88,258.765 122.141,258.332C122.165,259.054 122.165,259.725 122.165,260.294L122.165,260.484C122.165,261.091 122.15,261.675 122.127,262.235C122.906,262.514 123.715,262.701 124.538,262.792L124.538,265.822C124.538,266.923 124.976,267.98 125.755,268.759C126.533,269.537 127.59,269.974 128.691,269.974L139.372,269.974C139.918,269.975 140.458,269.867 140.963,269.659C141.466,269.451 141.924,269.145 142.31,268.759C142.697,268.374 143.003,267.916 143.212,267.411C143.42,266.908 143.527,266.368 143.527,265.822L143.527,255.145C143.527,252.853 141.667,250.993 139.374,250.993ZM139.966,265.822C139.966,265.98 139.902,266.13 139.791,266.242C139.68,266.353 139.53,266.416 139.372,266.416L128.691,266.416C128.364,266.416 128.098,266.15 128.098,265.822L128.098,262.593C130.06,262.144 131.855,261.152 133.278,259.73C134.7,258.308 135.693,256.513 136.141,254.553L139.372,254.553C139.53,254.553 139.68,254.615 139.791,254.726C139.902,254.838 139.966,254.989 139.966,255.145L139.966,265.822ZM128.098,255.145C128.098,254.989 128.16,254.838 128.272,254.726C128.383,254.615 128.534,254.553 128.691,254.553L132.442,254.553C132.087,255.555 131.512,256.464 130.761,257.214C130.01,257.966 129.1,258.54 128.098,258.895L128.098,255.145Z" style="fill:rgb(239,209,67);"/>
            <path id="Shape-1" serif:id="Shape 1" d="M342.906,607.759C281.883,607.759 224.513,583.996 181.364,540.846C138.214,497.697 114.451,440.327 114.451,379.305C114.451,318.282 138.214,260.912 181.364,217.763C224.513,174.614 281.883,150.85 342.906,150.85C403.928,150.85 461.298,174.614 504.447,217.763C547.597,260.912 571.36,318.282 571.36,379.305C571.36,440.327 547.597,497.697 504.447,540.846C461.298,583.996 403.928,607.759 342.906,607.759ZM342.906,167.465C226.097,167.465 131.066,262.496 131.066,379.305C131.066,496.113 226.097,591.144 342.906,591.144C459.714,591.144 554.745,496.113 554.745,379.305C554.745,262.496 459.714,167.465 342.906,167.465ZM129.508,122.813C77.689,122.813 35.531,80.654 35.531,28.835C35.531,-22.984 77.689,-65.142 129.508,-65.142C181.328,-65.142 223.486,-22.984 223.486,28.835C223.486,80.654 181.328,122.813 129.508,122.813ZM129.508,-63.065C78.834,-63.065 37.607,-21.839 37.607,28.835C37.607,79.509 78.834,120.736 129.508,120.736C180.183,120.736 221.409,79.509 221.409,28.835C221.409,-21.839 180.183,-63.065 129.508,-63.065Z" style="fill:white;"/>
            <path id="Shape-2" serif:id="Shape 2" d="M332.029,699.173C326.596,699.173 322.192,703.583 322.192,709.021C322.192,714.461 326.596,718.87 332.029,718.87C337.463,718.87 341.867,714.461 341.867,709.021C341.867,703.583 337.463,699.173 332.029,699.173ZM102.482,699.173C97.049,699.173 92.644,703.583 92.644,709.021C92.644,714.461 97.049,718.87 102.482,718.87C107.915,718.87 112.32,714.461 112.32,709.021C112.32,703.583 107.915,699.173 102.482,699.173ZM194.301,699.173C188.868,699.173 184.463,703.583 184.463,709.021C184.463,714.461 188.868,718.87 194.301,718.87C199.734,718.87 204.139,714.461 204.139,709.021C204.139,703.583 199.734,699.173 194.301,699.173ZM240.21,699.173C234.777,699.173 230.373,703.583 230.373,709.021C230.373,714.461 234.777,718.87 240.21,718.87C245.643,718.87 250.048,714.461 250.048,709.021C250.048,703.583 245.643,699.173 240.21,699.173ZM286.12,699.173C280.687,699.173 276.283,703.583 276.283,709.021C276.283,714.461 280.687,718.87 286.12,718.87C291.554,718.87 295.958,714.461 295.958,709.021C295.958,703.583 291.554,699.173 286.12,699.173ZM148.391,699.173C142.958,699.173 138.553,703.583 138.553,709.021C138.553,714.461 142.958,718.87 148.391,718.87C153.824,718.87 158.229,714.461 158.229,709.021C158.229,703.583 153.824,699.173 148.391,699.173ZM332.029,653.214C326.596,653.214 322.192,657.624 322.192,663.062C322.192,668.502 326.596,672.911 332.029,672.911C337.463,672.911 341.867,668.502 341.867,663.062C341.867,657.624 337.463,653.214 332.029,653.214ZM102.482,653.214C97.049,653.214 92.644,657.624 92.644,663.062C92.644,668.502 97.049,672.911 102.482,672.911C107.915,672.911 112.32,668.502 112.32,663.062C112.32,657.624 107.915,653.214 102.482,653.214ZM194.301,653.214C188.868,653.214 184.463,657.624 184.463,663.062C184.463,668.502 188.868,672.911 194.301,672.911C199.734,672.911 204.139,668.502 204.139,663.062C204.139,657.624 199.734,653.214 194.301,653.214ZM240.21,653.214C234.777,653.214 230.373,657.624 230.373,663.062C230.373,668.502 234.777,672.911 240.21,672.911C245.643,672.911 250.048,668.502 250.048,663.062C250.048,657.624 245.643,653.214 240.21,653.214ZM286.12,653.214C280.687,653.214 276.283,657.624 276.283,663.062C276.283,668.502 280.687,672.911 286.12,672.911C291.554,672.911 295.958,668.502 295.958,663.062C295.958,657.624 291.554,653.214 286.12,653.214ZM148.391,653.214C142.958,653.214 138.553,657.624 138.553,663.062C138.553,668.502 142.958,672.911 148.391,672.911C153.824,672.911 158.229,668.502 158.229,663.062C158.229,657.624 153.824,653.214 148.391,653.214ZM332.029,607.257C326.596,607.257 322.192,611.666 322.192,617.105C322.192,622.544 326.596,626.953 332.029,626.953C337.463,626.953 341.867,622.544 341.867,617.105C341.867,611.666 337.463,607.257 332.029,607.257ZM102.482,607.257C97.049,607.257 92.644,611.666 92.644,617.105C92.644,622.544 97.049,626.953 102.482,626.953C107.915,626.953 112.32,622.544 112.32,617.105C112.32,611.666 107.915,607.257 102.482,607.257ZM194.301,607.257C188.868,607.257 184.463,611.666 184.463,617.105C184.463,622.544 188.868,626.953 194.301,626.953C199.734,626.953 204.139,622.544 204.139,617.105C204.139,611.666 199.734,607.257 194.301,607.257ZM240.21,607.257C234.777,607.257 230.373,611.666 230.373,617.105C230.373,622.544 234.777,626.953 240.21,626.953C245.643,626.953 250.048,622.544 250.048,617.105C250.048,611.666 245.643,607.257 240.21,607.257ZM286.12,607.257C280.687,607.257 276.283,611.666 276.283,617.105C276.283,622.544 280.687,626.953 286.12,626.953C291.554,626.953 295.958,622.544 295.958,617.105C295.958,611.666 291.554,607.257 286.12,607.257ZM148.391,607.257C142.958,607.257 138.553,611.666 138.553,617.105C138.553,622.544 142.958,626.953 148.391,626.953C153.824,626.953 158.229,622.544 158.229,617.105C158.229,611.666 153.824,607.257 148.391,607.257ZM332.029,561.298C326.596,561.298 322.192,565.707 322.192,571.146C322.192,576.585 326.596,580.994 332.029,580.994C337.463,580.994 341.867,576.585 341.867,571.146C341.867,565.707 337.463,561.298 332.029,561.298ZM102.482,561.298C97.049,561.298 92.644,565.707 92.644,571.146C92.644,576.585 97.049,580.994 102.482,580.994C107.915,580.994 112.32,576.585 112.32,571.146C112.32,565.707 107.915,561.298 102.482,561.298ZM194.301,561.298C188.868,561.298 184.463,565.707 184.463,571.146C184.463,576.585 188.868,580.994 194.301,580.994C199.734,580.994 204.139,576.585 204.139,571.146C204.139,565.707 199.734,561.298 194.301,561.298ZM240.21,561.298C234.777,561.298 230.373,565.707 230.373,571.146C230.373,576.585 234.777,580.994 240.21,580.994C245.643,580.994 250.048,576.585 250.048,571.146C250.048,565.707 245.643,561.298 240.21,561.298ZM286.12,561.298C280.687,561.298 276.283,565.707 276.283,571.146C276.283,576.585 280.687,580.994 286.12,580.994C291.554,580.994 295.958,576.585 295.958,571.146C295.958,565.707 291.554,561.298 286.12,561.298ZM148.391,561.298C142.958,561.298 138.553,565.707 138.553,571.146C138.553,576.585 142.958,580.994 148.391,580.994C153.824,580.994 158.229,576.585 158.229,571.146C158.229,565.707 153.824,561.298 148.391,561.298ZM102.482,515.34C97.049,515.34 92.644,519.749 92.644,525.188C92.644,530.627 97.049,535.036 102.482,535.036C107.915,535.036 112.32,530.627 112.32,525.188C112.32,519.749 107.915,515.34 102.482,515.34ZM332.029,535.036C337.463,535.036 341.867,530.627 341.867,525.188C341.867,519.749 337.463,515.34 332.029,515.34C326.596,515.34 322.192,519.749 322.192,525.188C322.192,530.627 326.596,535.036 332.029,535.036ZM194.301,515.34C188.868,515.34 184.463,519.749 184.463,525.188C184.463,530.627 188.868,535.036 194.301,535.036C199.734,535.036 204.139,530.627 204.139,525.188C204.139,519.749 199.734,515.34 194.301,515.34ZM240.21,515.34C234.777,515.34 230.373,519.749 230.373,525.188C230.373,530.627 234.777,535.036 240.21,535.036C245.643,535.036 250.048,530.627 250.048,525.188C250.048,519.749 245.643,515.34 240.21,515.34ZM286.12,515.34C280.687,515.34 276.283,519.749 276.283,525.188C276.283,530.627 280.687,535.036 286.12,535.036C291.554,535.036 295.958,530.627 295.958,525.188C295.958,519.749 291.554,515.34 286.12,515.34ZM148.391,515.34C142.958,515.34 138.553,519.749 138.553,525.188C138.553,530.627 142.958,535.036 148.391,535.036C153.824,535.036 158.229,530.627 158.229,525.188C158.229,519.749 153.824,515.34 148.391,515.34Z" style="fill:white;"/>
            <g id="Group-2" serif:id="Group 2">
                <path id="Shape-3-copy-2" serif:id="Shape 3 copy 2" d="M440.518,534.031L473.748,534.031C487.512,534.031 498.67,545.189 498.67,558.953L498.67,592.183C498.67,605.947 487.512,617.105 473.748,617.105L440.518,617.105C426.754,617.105 415.596,605.947 415.596,592.183L415.596,558.953C415.596,545.189 426.754,534.031 440.518,534.031Z" style="fill:rgb(239,209,67);fill-rule:nonzero;"/>
                <path id="Shape-6" serif:id="Shape 6" d="M440.518,564.145C440.518,562.768 441.065,561.447 442.038,560.473C443.012,559.5 444.333,558.953 445.71,558.953L464.402,558.953C465.779,558.953 467.1,559.5 468.074,560.473C469.047,561.447 469.594,562.768 469.594,564.145L469.594,572.66C467.445,571.561 465.001,571.173 462.617,571.549C460.231,571.926 458.028,573.049 456.321,574.756C454.614,576.463 453.491,578.667 453.114,581.052C452.738,583.436 453.127,585.879 454.225,588.029L445.71,588.029C444.333,588.029 443.012,587.482 442.038,586.509C441.065,585.535 440.518,584.214 440.518,582.837L440.518,564.145ZM452.676,566.957C452.772,566.861 452.849,566.746 452.901,566.62C452.953,566.494 452.98,566.358 452.98,566.222C452.98,566.086 452.953,565.95 452.901,565.824C452.849,565.698 452.772,565.583 452.676,565.487C452.579,565.39 452.465,565.314 452.338,565.261C452.213,565.21 452.077,565.182 451.941,565.182C451.805,565.182 451.669,565.21 451.543,565.261C451.416,565.314 451.302,565.39 451.205,565.487L447.787,568.907L446.445,567.563C446.25,567.369 445.986,567.259 445.71,567.259C445.434,567.259 445.17,567.369 444.975,567.563C444.78,567.759 444.671,568.023 444.671,568.299C444.671,568.575 444.78,568.839 444.975,569.034L447.052,571.111C447.148,571.207 447.263,571.284 447.389,571.336C447.515,571.389 447.65,571.416 447.787,571.416C447.924,571.416 448.059,571.389 448.185,571.336C448.311,571.284 448.426,571.207 448.522,571.111L452.676,566.957ZM452.676,575.871C452.579,575.775 452.465,575.698 452.338,575.646C452.213,575.593 452.078,575.566 451.941,575.566C451.804,575.566 451.669,575.593 451.543,575.646C451.416,575.698 451.302,575.775 451.205,575.871L447.787,579.291L446.445,577.948C446.25,577.753 445.986,577.643 445.71,577.643C445.434,577.643 445.17,577.753 444.975,577.948C444.78,578.143 444.671,578.407 444.671,578.683C444.671,578.959 444.78,579.223 444.975,579.418L447.052,581.495C447.148,581.592 447.263,581.668 447.389,581.721C447.515,581.774 447.65,581.8 447.787,581.8C447.924,581.8 448.059,581.774 448.185,581.721C448.311,581.668 448.426,581.592 448.522,581.495L452.676,577.342C452.772,577.245 452.849,577.131 452.901,577.004C452.954,576.878 452.981,576.743 452.981,576.606C452.981,576.469 452.954,576.334 452.901,576.209C452.849,576.082 452.772,575.967 452.676,575.871ZM456.094,567.26C455.819,567.26 455.554,567.369 455.36,567.565C455.165,567.759 455.056,568.023 455.056,568.299C455.056,568.574 455.165,568.839 455.36,569.033C455.554,569.228 455.819,569.337 456.094,569.337L462.325,569.337C462.6,569.337 462.865,569.228 463.059,569.033C463.254,568.839 463.363,568.574 463.363,568.299C463.363,568.023 463.254,567.759 463.059,567.565C462.865,567.369 462.6,567.26 462.325,567.26L456.094,567.26ZM464.402,592.183C466.881,592.183 469.258,591.198 471.01,589.445C472.763,587.692 473.748,585.316 473.748,582.837C473.748,580.358 472.763,577.981 471.01,576.228C469.258,574.475 466.881,573.491 464.402,573.491C461.923,573.491 459.546,574.475 457.793,576.228C456.04,577.981 455.056,580.358 455.056,582.837C455.056,585.316 456.04,587.692 457.793,589.445C459.546,591.198 461.923,592.183 464.402,592.183ZM464.402,577.644C464.677,577.644 464.942,577.754 465.136,577.949C465.331,578.143 465.44,578.408 465.44,578.683L465.44,581.798L468.556,581.798C468.831,581.798 469.096,581.907 469.29,582.103C469.485,582.297 469.594,582.562 469.594,582.837C469.594,583.112 469.485,583.377 469.29,583.571C469.096,583.766 468.831,583.875 468.556,583.875L465.44,583.875L465.44,586.99C465.44,587.266 465.331,587.53 465.136,587.724C464.942,587.92 464.677,588.029 464.402,588.029C464.127,588.029 463.862,587.92 463.668,587.724C463.473,587.53 463.363,587.266 463.363,586.99L463.363,583.875L460.248,583.875C459.973,583.875 459.708,583.766 459.514,583.571C459.319,583.377 459.21,583.112 459.21,582.837C459.21,582.562 459.319,582.297 459.514,582.103C459.708,581.907 459.973,581.798 460.248,581.798L463.363,581.798L463.363,578.683C463.363,578.408 463.473,578.143 463.668,577.949C463.862,577.754 464.127,577.644 464.402,577.644Z" style="fill:white;fill-rule:nonzero;"/>
            </g>
            <path id="Shape-3" serif:id="Shape 3" d="M500.747,190.311L533.977,190.311C547.741,190.311 558.899,201.469 558.899,215.233L558.899,248.463C558.899,262.227 547.741,273.385 533.977,273.385L500.747,273.385C486.983,273.385 475.825,262.227 475.825,248.463L475.825,215.233C475.825,201.469 486.983,190.311 500.747,190.311Z" style="fill:white;fill-rule:nonzero;"/>
            <path id="Shape-4" serif:id="Shape 4" d="M525.744,231.327L528.679,228.42L521.667,221.474L518.731,224.382L510.989,216.733C509.529,215.289 507.155,215.289 505.696,216.733L502.143,220.252C500.685,221.697 500.685,224.049 502.143,225.494L509.866,233.142L500.983,241.957L500.983,248.902L507.997,248.902L516.898,240.087L524.622,247.736C526.398,249.495 528.792,248.847 529.913,247.736L533.467,244.217C534.925,242.772 534.925,240.42 533.467,238.976L525.744,231.327ZM512.54,230.512L504.798,222.863L508.333,219.345L510.708,221.697L508.502,223.901L511.138,226.512L513.363,224.309L516.076,226.994L512.54,230.512ZM527.277,245.124L519.554,237.475L523.107,233.956L525.819,236.642L523.593,238.846L526.23,241.457L528.455,239.253L530.83,241.605L527.277,245.124ZM534.103,223.049C534.276,222.877 534.414,222.674 534.508,222.45C534.601,222.226 534.65,221.986 534.65,221.743C534.65,221.5 534.601,221.26 534.508,221.036C534.414,220.813 534.276,220.608 534.103,220.438L529.727,216.104C528.848,215.233 527.633,215.567 527.09,216.104L523.668,219.493L530.68,226.438L534.103,223.049Z" style="fill:rgb(239,209,67);fill-rule:nonzero;"/>
        </g>
    </g>
</svg>
